<svg xmlns="http://www.w3.org/2000/svg" viewBox="0 0 278.7 36.3">
  <path d="M238.1 14.4v21.9h7V14.4h12.5V0h-31.9v14.4h12.4zM278.7 0v7.1h-17.8v6.3h17.8v7.1h-17.8V29h17.8v7.3h-24.9V0h24.9zM31.5 14.4V7.1H0v7.3h12.3v21.9h7V14.4h12.2zM71.1 0H46.2v36.3H71v-7.3H53.2v-6.3h17.9v-7.1H53.2V7.1h17.9V0zM102.5 12c0-4.5-1.3-8.2-3.8-10.5C96.5.6 93.4 0 89.5 0H72.8v36.3h7V24.1h6.5l8.6 12.2h8.1l-9.4-13c5.8-1.7 8.9-5.8 8.9-11.3zm-22.7 5V7.1h9.3c2.3 0 3.7.3 4.7 1.2 1.1.9 1.7 2.3 1.7 4.1 0 1.7-.6 2.9-1.7 3.7-1.1.8-2.8 1-5 1l-9-.1zM130 0l-17.4 36.3h7.6l3.5-7.8h17l3.8 7.8h7.7L134.4 0H130zm-3.8 22l6-13.3 6.3 13.3h-12.3zM174.8 0v36.3h24.1V29h-17.1V0h-7z" fill="currentColor"/>
</svg>
